<svg xmlns="http://www.w3.org/2000/svg" viewBox="0 0 64 64" width="64" height="64">
  <defs>
    <linearGradient id="g" x1="0" y1="0" x2="64" y2="64" gradientUnits="userSpaceOnUse">
      <stop offset="0%" stop-color="#3B82F6"/>
      <stop offset="100%" stop-color="#1D4ED8"/>
    </linearGradient>
  </defs>
  <!-- Gear SVG with 8 teeth -->
  <g transform="translate(32,32)">
    <path d="M0,-26 L4,-22 L6,-22.5 L9,-28 L15,-25 L13.5,-19 L14.5,-17 L20.5,-14 L18.5,-8 L13,-7.5 L12,-6 L15,0 L9,4 L7.5,2.5 L2,6 L-2,0 L-2.5,-2 L-8,-5 L-12,-1 L-11,5 L-17,7 L-19,1 L-18,-1 L-24,-4 L-22,-10 L-16,-10.5 L-15,-12 L-14,-19 L-8,-18 L-6,-19 L-4,-26 Z"
          fill="url(#g)" stroke="#1E40AF" stroke-width="0.5"/>
    <!-- Center hole -->
    <circle cx="0" cy="0" r="8" fill="white"/>
    <circle cx="0" cy="0" r="5" fill="#1E3A5F"/>
    <!-- Inner gear teeth detail -->
    <circle cx="0" cy="0" r="3" fill="#2563EB"/>
    <circle cx="0" cy="0" r="1.5" fill="white"/>
  </g>
</svg>
